<svg width="16" height="17" fill="none" xmlns="http://www.w3.org/2000/svg"><g clip-path="url(#clip0_69_2118)"><path d="M12.782 7.08a13.465 13.465 0 01-5.858 5.857L4.97 10.982a.884.884 0 00-.907-.213 10.14 10.14 0 01-3.173.506c-.489 0-.889.4-.889.89v3.101c0 .49.4.89.889.89C9.236 16.155 16 9.39 16 1.043c0-.489-.4-.889-.889-.889H12c-.489 0-.889.4-.889.89a10.1 10.1 0 01-.507 3.173.892.892 0 00.223.906l1.955 1.956z" fill="#fff"/></g><defs><clipPath id="clip0_69_2118"><path fill="#fff" transform="matrix(-1 0 0 1 16 .155)" d="M0 0h16v16H0z"/></clipPath></defs></svg>