<svg width="486" height="499" fill="none" xmlns="http://www.w3.org/2000/svg"><path d="M456.255 498.078H45.541" stroke="#949494" stroke-width="1.5"/><path d="M97.447 214.514s88.207 122.631 2.741 255.913l-2.068 26.475-37.039-20.345" stroke="#949494"/><path d="M1.284 191.467l.765 83.725v222h65.266l-6.9-12.364 22.564-274.351-81.695-19.01zm33.72-149.615V67.56l31.848 7.828V32.003l-31.848-7.828v17.677z" stroke="#949494"/><path d="M52.995 50.747a.852.852 0 110-1.703.852.852 0 010 1.703zm-13.08 0a.852.852 0 110-1.703.852.852 0 010 1.703z" fill="#949494"/><path d="M43.752 54.975V41.852h-6.574m17.421 0h-6.574m16.73 11.281a4.451 4.451 0 004.45-4.45" stroke="#949494" stroke-width="1.5"/><path d="M46.628 58.21a4.505 4.505 0 004.505-4.504" stroke="#949494" stroke-width="1.5" stroke-linecap="round" stroke-linejoin="round"/><path d="M35.004 67.56l31.848 7.828" stroke="#949494" stroke-width="1.5"/><path d="M43.752 54.986l2.876.707" stroke="#949494" stroke-width="1.5" stroke-linecap="round"/><path d="M64.298 47.508s-6.204-5.804-6.304-11.408c0 0-23.416 3.502-26.918 2.502l2.501-4.804a51.888 51.888 0 01-8.105-4.002s30.12-21.014 43.83 1.1c0 0 9.174 4.403-.317 16.611" stroke="#949494" stroke-width="1.5"/><path d="M1.667 121.426v69.547l98.522 24.214v-77.455c0-27.464-18.75-51.38-45.42-57.936h0a42.869 42.869 0 00-53.102 41.63h0z" stroke="#949494"/><path d="M17.366 167.687c13.584 15.62 43.082 13.91 71.786 5.074-5.554 10.944-20.566 18.789-38.224 18.789-22.383 0-40.527-12.6-40.527-28.144 0-1.453.16-2.902.476-4.32a75.809 75.809 0 006.49 8.601z" fill="#949494"/><path d="M60.826 484.53L83.4 209.995M7.813 99.273s-20.47 33.892 9.554 68.415c30.023 34.523 137.791-15.611 142.895-40.227 5.103-24.617 1.201-22.515-4.503-17.412-5.704 5.104-8.706 3.903-8.706 3.903s-.901-9.607-3.903-6.905c-3.002 2.702-3.902 7.805-3.902 7.805l-72.396 19.213-17.971-29.72M71.062 86.47s26.732 16.643 37.702 36.472" stroke="#949494" stroke-width="1.5"/><path d="M143.051 146.862s38.325 3.514 57.538 6.716c19.212 3.202-2.402 7.205-2.402 7.205s-10.007 14.409-27.218 8.806c0 0-35.09 16.811-70.78 7.605" stroke="#949494" stroke-width="1.5"/><path stroke="#949494" d="M443.945 226.032H208.546v170.686h235.399z"/><path d="M208.547 226.032v170.686" stroke="#949494" stroke-width="1.5"/><path d="M405.725 284.523l2.093-7.035a26.232 26.232 0 0125.141-18.75H485l-41.055 137.98H208.547l33.382-112.195h163.796z" stroke="#949494"/><path d="M443.945 396.718H208.547m0 0l33.382-112.195h163.796" stroke="#949494" stroke-width="1.5"/><path d="M292.27 31.85h-14.343l-44.846 44.846v117.963h125.026v-30.143" stroke="#949494"/><path d="M358.107 194.659H233.081V76.696m102.78 24.393h-52.213m52.213 10.994h-52.213m52.213 10.993h-52.213m52.213 10.995h-26.106" stroke="#949494" stroke-width="1.5"/><path d="M277.453 46.484v117.963h125.026V1.547H322.59" stroke="#949494" stroke-width="1.5"/><path d="M277.453 46.484l44.846-44.846v44.846h-44.846v0z" stroke="#949494"/><path d="M366.073 70.877H313.86m52.213 10.994H313.86m52.213 10.994H313.86m52.213 10.994h-26.107" stroke="#949494" stroke-width="1.5"/></svg>