<svg width="300" height="301" fill="none" xmlns="http://www.w3.org/2000/svg"><path d="M198.46 57.054a11.36 11.36 0 00-.669-7.014c-2.745-6.444-10.253-22.404-17.475-22.904-9.058-.627-6.2 7.349-2.986 9.254a5.305 5.305 0 005.833-.12s8.676 10.541 7.739 13.81c0 0-5 0-3.334 4.762 1.459 4.167 9.024 10.248 10.892 2.212z" fill="#DC911B"/><path d="M181.32 124.857s23.312 80.447-8.291 107.231c-31.603 26.785-65.352 39.106-65.352 39.106l-3.214 12.321-16.07-39.106 44.997-51.426 19.283-78.747" fill="#E2E2E2"/><path d="M149.856 167.27c-4.029 0-7.881 1.814-11.422 5.115l-5.044 20.598-10.923 12.484c-2.594 10.941-4.076 23.588-4.076 37.064a173.42 173.42 0 001.552 23.389c12.658-5.954 33.292-17.056 53.086-33.832a36.634 36.634 0 007.287-8.492c-3.511-32.4-15.817-56.326-30.46-56.326z" fill="#000"/><path d="M171.79 112.795s7.21 117.675-13.153 173.39l4.253 6.249h-36.218s-3.957-149.676-3.957-181.981l49.075 2.342zm-8.415-91.046v15.293l-18.945 4.656V15.89l18.945-4.656v10.515z" fill="#EDEEEF"/><path d="M152.673 27.04a.506.506 0 100-1.012.506.506 0 000 1.012zm7.78 0a.507.507 0 100-1.014.507.507 0 000 1.014z" fill="#000"/><path d="M158.171 29.555v-7.806h3.91m-10.362-.001h3.91" stroke="#000" stroke-width="1.5" stroke-linecap="round" stroke-linejoin="round"/><path d="M145.678 25.748v2.711a2.647 2.647 0 01-2.637-2.888c.148-1.645 2.637-1.473 2.637.177z" fill="#EDEEEF"/><path d="M145.678 28.46a2.647 2.647 0 01-2.648-2.649" stroke="#000" stroke-width="1.5" stroke-linecap="round" stroke-linejoin="round"/><path d="M156.46 31.48a2.68 2.68 0 01-2.68-2.68" stroke="#DC911B" stroke-width="1.5" stroke-linecap="round" stroke-linejoin="round"/><path d="M163.375 37.041l-18.945 4.657m13.741-12.137l-1.711.42" stroke="#000" stroke-width="1.5" stroke-linecap="round" stroke-linejoin="round"/><path d="M122.715 69.083v41.37l58.605 14.404V78.783c0-16.337-11.153-30.564-27.018-34.463a25.499 25.499 0 00-31.587 24.763z" fill="#DC911B"/><path d="M171.79 112.795s7.21 117.675-13.153 173.39M146.787 23.68s3.213-.178 11.384-6.16v2.321s4.688-1.339 6.027-3.66" stroke="#000" stroke-width="1.5" stroke-linecap="round" stroke-linejoin="round"/><path d="M164.626 15.272s10.108-13.377-17.839-4.038l3.036-3.312s-14.911 4.827-6.161 16.498m19.435.838s3.699-4.968 2.214-11.048m-37.1 39.052S91.734 82.699 97.448 120.2c5.715 37.5 43.462 40 43.462 40l5.878-10.357-24.073-39.39 22.963-23.468M140.91 160.2l12.059-21.25m17.523-85.688s12.195 12.77 18.148 27.056" stroke="#000" stroke-width="1.5" stroke-linecap="round" stroke-linejoin="round"/><path d="M180.316 109.605s4.514 9.524 16.895 12.619c12.295 3.073 25.294-51.846-2.27-87.118a4.426 4.426 0 00-2.353-1.58c-1.701-.44-3.893.185-2.987 7.03 0 0-3.819-1.352-1.914 3.015 1.905 4.366 5.444 21.305-1.207 32.122" stroke="#000" stroke-width="1.5" stroke-linecap="round" stroke-linejoin="round"/></svg>