<svg width="805" height="805" fill="none" xmlns="http://www.w3.org/2000/svg"><path d="M291.749 207.938l6.868-6.695m-13.735-9.98l-4.246 8.601-9.491 1.379 6.868 6.695-1.621 9.453 8.49-4.463 8.488 4.463m-39.524-9.453l6.868-6.695m-13.736-9.98l-4.244 8.601-9.492 1.379 6.868 6.695-1.621 9.453 8.489-4.463 8.49 4.463m-39.525-9.453l6.868-6.695m-13.736-9.98l-4.245 8.601-9.491 1.379 6.868 6.695-1.622 9.453 8.49-4.463 8.489 4.463m-39.524-9.453l6.868-6.695m-13.736-9.98l-4.245 8.601-9.491 1.379 6.868 6.695-1.621 9.453 8.489-4.463 8.49 4.463m-39.525-9.453l6.868-6.695m-13.736-9.98l-4.244 8.601-9.492 1.379 6.868 6.695-1.622 9.453 8.49-4.463 8.489 4.463" stroke="#949494" stroke-width="1.5"/><path d="M393.688 600.091l29.121-25.763h44.098v-74.342h57.41v-92.008l72.387 64.038v122.187h38.274v54.124h15.808v-15.113h28.289v30.226" stroke="#949494"/><path d="M697.38 663.441H278.867" stroke="#949494" stroke-width="1.5"/><path d="M289.53 350.173S252.762 477.21 236.957 630.35l-11.491 7.645 50.161 23.917 47.983-134.637" stroke="#949494"/><path d="M305.095 354.2l30.869 295.104-8.194 14.277m61.85-289.256l6.258 289.256" stroke="#949494"/><path d="M319.758 209.528a18.992 18.992 0 0014.46 18.444l17.993 4.423" stroke="#949494" stroke-width="1.5"/><path d="M338.09 207.285a.868.868 0 100-1.736.868.868 0 000 1.736zm-13.327 0a.868.868 0 10-.001-1.737.868.868 0 00.001 1.737z" fill="#949494"/><path d="M328.673 211.593v-13.372h-5.128m16.18 0h-6.699m17.048 11.495a4.535 4.535 0 004.536-4.535" stroke="#949494" stroke-width="1.5"/><path d="M332.336 213.156a3.004 3.004 0 004.247 0" stroke="#949494" stroke-width="1.5" stroke-linecap="round" stroke-linejoin="round"/><path d="M328.673 211.604l2.93.72" stroke="#949494" stroke-width="1.5" stroke-linecap="round"/><path d="M289.53 279.306v70.867l100.391 24.674v-78.926c0-27.986-19.105-52.356-46.282-59.035h0a43.682 43.682 0 00-54.109 42.42v0z" stroke="#949494"/><path d="M319.071 206.417l-9.942-5.451s14.531-41.603 44.356-23.249c29.825 18.354-1.274 39.308-1.274 39.308" stroke="#949494" stroke-width="1.5"/><path d="M318.357 199.232s19.735-3.181 26.607-12.828c0 0-2.795 13.968 5.489 17.375m15.965 44.124s34.023 23.926 48.706 57.322c0 0-5.201-61.433 2.141-71.528 3.876-5.329 8.259 1.905 8.259 1.905s19.272-8.023 19.884-4.964c.612 3.059-10.707 14.683-10.707 14.683s16.519 76.046 3.671 97.765c-12.848 21.719-78.004-21.596-78.004-21.596" stroke="#949494" stroke-width="1.5"/><path d="M367.387 325.907s.137 29.824 22.535 42.511v-30.159l-22.535-12.352z" fill="#949494"/><path d="M306.674 244.613s-30.225 22.4-35.935 44.948c0 0-9.381-61.028-14.683-59.618-5.303 1.409-6.526 5.659-6.526 5.659s-16.723-8.748-19.17-5.684c-2.447 3.065 14.683 19.788 14.683 19.788s-10.363 72.93 1.632 82.797c25.287 20.801 42.854-8.973 42.854-8.973" stroke="#949494" stroke-width="1.5"/><path d="M625.034 241.21H524.86l-24.955 26.05v-26.05h-41.081V129.637h166.21V241.21z" stroke="#949494"/><path stroke="#949494" d="M579.806 190.531h-10.217v-10.217h10.217zm-32.768 0h-10.217v-10.217h10.217zm-32.768 0h-10.217v-10.217h10.217z"/></svg>