<svg width="289" height="289" fill="none" xmlns="http://www.w3.org/2000/svg"><path d="M148 51s5.352 4.814 13 11" stroke="#000" stroke-width="1.5" stroke-linecap="round" stroke-linejoin="round"/><path d="M157.494 119.778S177 163.5 166 211m-17.5-92s4.5 34-4 90.5m-42 0s-1.604-72.434-1.604-103.633" stroke="#000" stroke-width="1.5"/><path d="M138.716 20.2v14.77l-18.296 4.497V14.543l18.296-4.497v10.155z" fill="#EDEEEF"/><path d="M128.381 25.31a.49.49 0 100-.978.49.49 0 000 .979zm7.514 0a.49.49 0 100-.978.49.49 0 000 .979z" fill="#000"/><path d="M133.691 27.74V20.2h3.776m-10.007.001h3.776" stroke="#000" stroke-width="1.5" stroke-linecap="round" stroke-linejoin="round"/><path d="M121.625 24.064v2.618a2.557 2.557 0 01-2.546-2.79c.143-1.588 2.546-1.423 2.546.172z" fill="#EDEEEF"/><path d="M121.625 26.682a2.557 2.557 0 01-2.557-2.557m12.971 5.473a2.588 2.588 0 01-2.588-2.588m9.265 7.96l-18.296 4.497m13.271-11.721l-1.652.406M121.625 23.7s2.332-4.255 2.447-6.152l.633 2.653s4.311-1.33 6.955-4.607v3.372s5.087-1.073 6.395-4.465v3.162s1.596-1.092 1.998-2.76" stroke="#000" stroke-width="1.5" stroke-linecap="round" stroke-linejoin="round"/><path d="M138.716 20.538s9.296-9.862-3.31-12.59c-9.034-1.954-13.781 2.874-13.781 2.874s-3.129 1.495-4.394 4.025c-1.264 2.529-1.785 9.025 3.189 13.854" stroke="#000" stroke-width="1.5" stroke-linecap="round" stroke-linejoin="round"/><path d="M100.896 65.915v39.952l56.598 13.911V75.282c0-15.778-10.771-29.517-26.093-33.283h0a24.627 24.627 0 00-30.505 23.916v0z" stroke="#000"/><path d="M138.716 96.081s.032-32.905 18.778-33.116c18.746-.21 12.223-21.69 12.223-21.69l30.724 6.96s5.051 29.462-20.833 38.295c-13.228 4.514-7.568 35.298-7.568 35.298l-33.985-3.937v-4.537" stroke="#000" stroke-width="1.5"/><path d="M105.744 51.231s-17.78 23.286-17.55 50.649c.23 27.364 42.54 24.834 58.636 2.99 0 0 10.578-7.359 8.968-8.968-1.609-1.61-8.656-.071-8.656-.071s1.298-3.723-.657-2.804c-1.954.92-4.574 2.842-4.574 2.842l-25.69 1.707 5.858-23.979" stroke="#000" stroke-width="1.5" stroke-linecap="round" stroke-linejoin="round"/><path d="M105.744 51.231s-17.78 23.286-17.55 50.649c.23 27.364 42.54 24.834 58.636 2.99 0 0 10.578-7.359 8.968-8.968-1.609-1.61-8.656-.071-8.656-.071s1.298-3.723-.657-2.804c-1.954.92-4.574 2.842-4.574 2.842l-25.69 1.707 5.858-23.979" stroke="#000" stroke-width="1.5" stroke-linecap="round" stroke-linejoin="round"/><path d="M101.359 120.212v19.378c27.42-6.44 41.178-29.891 41.178-29.891h-.001c-11.195 10.566-29.018 14.704-41.177 10.513z" fill="#000"/><path d="M166.778 115.849s19.833 5.519 23.799-3.621c3.967-9.141-3.104-34.32-3.104-34.32s2.069-4.483 1.035-5.69c-1.035-1.208-2.07 0-2.07 0s-1.638-7.934-4.139-7.33c-2.5.604-4.354 12.88-5.299 22.612" stroke="#000" stroke-width="1.5" stroke-linecap="round" stroke-linejoin="round"/></svg>